<?xml version="1.0" ?><!DOCTYPE svg  PUBLIC '-//W3C//DTD SVG 1.1//EN'  'http://www.w3.org/Graphics/SVG/1.1/DTD/svg11.dtd'><svg id="Lager_1" style="enable-background:new -265 388.9 64 64;" version="1.1" viewBox="-265 388.9 64 64" xml:space="preserve" xmlns="http://www.w3.org/2000/svg" xmlns:xlink="http://www.w3.org/1999/xlink"><g><g><path d="M-235.9,437.9h-11.6c-0.8,0-1.5-0.7-1.5-1.5v-29c0-0.8,0.7-1.5,1.5-1.5h11.6c0.8,0,1.5,0.7,1.5,1.5v29.1    C-234.5,437.2-235.1,437.9-235.9,437.9z"/></g><path d="M-215.5,437.9h-11.7c-0.8,0-1.5-0.7-1.5-1.5v-29c0-0.8,0.7-1.5,1.5-1.5h11.6c0.8,0,1.5,0.7,1.5,1.5v29.1   C-214.1,437.2-214.7,437.9-215.5,437.9z"/></g></svg>